<svg xmlns="http://www.w3.org/2000/svg" version="1.1" style="font-family:Lato, &#x27;Helvetica Neue&#x27;, Helvetica, Arial, &#x27;Liberation Sans&#x27;, sans-serif;font-size:18px;background-color:#ffffff;text-rendering:geometricPrecision;-webkit-font-smoothing:antialiased" width="850" height="600" viewBox="0 0 850 600"><defs><style>@import url(https://ourworldindata.org/fonts.css)</style></defs><defs><pattern id="noDataPattern" patternUnits="userSpaceOnUse" width="4" height="4" patternTransform="rotate(-45 2 2)"><path d="M -1,2 l 6,0" stroke="#ccc" stroke-width="0.7"></path></pattern></defs><g id="header" class="HeaderView"><g id="logo" transform="translate(769, 16) scale(1)"><svg className="owidLogo" xmlns="http://www.w3.org/2000/svg" width="65" height="36" viewBox="0 0 65 36"  fill="none"><path fill="#002147" d="M0 0h64.8v36H0z"/><path fill="#CE261E" d="M0 33.3h64.8V36H0z"/><path fill="#fff" d="M13.796 10.575c0 .636-.106 1.226-.318 1.77a4.193 4.193 0 0 1-.894 1.404 4.084 4.084 0 0 1-1.386.93c-.54.22-1.138.33-1.794.33-.656 0-1.256-.11-1.8-.33a4.149 4.149 0 0 1-1.392-.93 4.193 4.193 0 0 1-.894-1.404A4.833 4.833 0 0 1 5 10.575c0-.636.106-1.224.318-1.764a4.18 4.18 0 0 1 .894-1.41 4.076 4.076 0 0 1 1.392-.924 4.684 4.684 0 0 1 1.8-.336c.656 0 1.254.112 1.794.336.54.224 1.002.534 1.386.93.384.392.682.86.894 1.404.212.54.318 1.128.318 1.764Zm-1.656 0c0-.476-.064-.902-.192-1.278a2.671 2.671 0 0 0-.54-.966 2.332 2.332 0 0 0-.864-.606 2.94 2.94 0 0 0-1.14-.21c-.424 0-.806.07-1.146.21-.34.14-.63.342-.87.606a2.742 2.742 0 0 0-.546.966 3.955 3.955 0 0 0-.192 1.278c0 .476.064.904.192 1.284.128.376.31.696.546.96.24.26.53.46.87.6.34.14.722.21 1.146.21.424 0 .804-.07 1.14-.21.34-.14.628-.34.864-.6.236-.264.416-.584.54-.96a4.01 4.01 0 0 0 .192-1.284ZM16.104 8.757v3.912c0 .376.086.668.258.876.176.204.438.306.786.306.256 0 .496-.056.72-.168a2.58 2.58 0 0 0 .636-.474V8.757h1.482v6.156h-.906c-.192 0-.318-.09-.378-.27l-.102-.492a4.65 4.65 0 0 1-.396.354 2.577 2.577 0 0 1-.438.27 2.35 2.35 0 0 1-.498.168 2.345 2.345 0 0 1-.57.066c-.336 0-.634-.056-.894-.168a1.821 1.821 0 0 1-.648-.486 2.157 2.157 0 0 1-.402-.738 3.233 3.233 0 0 1-.132-.948V8.757h1.482ZM21.328 14.913V8.757h.87c.152 0 .258.028.318.084.06.056.1.152.12.288l.09.744c.22-.38.478-.68.774-.9.296-.22.628-.33.996-.33.304 0 .556.07.756.21l-.192 1.11c-.012.072-.038.124-.078.156a.278.278 0 0 1-.162.042 1.01 1.01 0 0 1-.246-.042 1.646 1.646 0 0 0-.414-.042c-.308 0-.572.086-.792.258-.22.168-.406.416-.558.744v3.834h-1.482ZM27.347 6.237h1.356a.57.57 0 0 1 .348.102c.096.064.16.152.192.264l1.476 5.19c.036.128.068.268.096.42.032.148.062.306.09.474a5.968 5.968 0 0 1 .228-.894l1.704-5.19a.575.575 0 0 1 .186-.252.543.543 0 0 1 .348-.114h.474a.57.57 0 0 1 .348.102.497.497 0 0 1 .192.264l1.692 5.19c.088.256.164.54.228.852.028-.156.056-.306.084-.45.032-.144.064-.278.096-.402l1.476-5.19c.028-.1.09-.186.186-.258a.563.563 0 0 1 .348-.108h1.266l-2.694 8.676h-1.458l-1.896-5.928-.078-.246a9.504 9.504 0 0 1-.072-.282c-.024.1-.05.194-.078.282-.024.088-.048.17-.072.246l-1.914 5.928H30.04l-2.694-8.676ZM42.771 8.661c.46 0 .876.074 1.248.222.376.148.696.358.96.63s.468.604.612.996c.144.392.216.83.216 1.314 0 .488-.072.928-.216 1.32a2.85 2.85 0 0 1-.612 1.002 2.653 2.653 0 0 1-.96.636 3.35 3.35 0 0 1-1.248.222c-.46 0-.878-.074-1.254-.222a2.712 2.712 0 0 1-.966-.636 2.922 2.922 0 0 1-.618-1.002 3.807 3.807 0 0 1-.216-1.32c0-.484.072-.922.216-1.314.148-.392.354-.724.618-.996.268-.272.59-.482.966-.63a3.397 3.397 0 0 1 1.254-.222Zm0 5.202c.512 0 .89-.172 1.134-.516.248-.344.372-.848.372-1.512s-.124-1.17-.372-1.518c-.244-.348-.622-.522-1.134-.522-.52 0-.904.176-1.152.528-.248.348-.372.852-.372 1.512s.124 1.164.372 1.512c.248.344.632.516 1.152.516ZM46.723 14.913V8.757h.87c.152 0 .258.028.318.084.06.056.1.152.12.288l.09.744c.22-.38.478-.68.774-.9.296-.22.628-.33.996-.33.304 0 .556.07.756.21l-.192 1.11c-.012.072-.038.124-.078.156a.278.278 0 0 1-.162.042 1.01 1.01 0 0 1-.246-.042 1.646 1.646 0 0 0-.414-.042c-.308 0-.572.086-.792.258-.22.168-.406.416-.558.744v3.834h-1.482ZM52.96 5.997v8.916h-1.482V5.997h1.482ZM58.732 14.913c-.192 0-.318-.09-.378-.27l-.12-.594a3.68 3.68 0 0 1-.402.39c-.14.116-.292.216-.456.3-.16.084-.334.148-.522.192a2.372 2.372 0 0 1-.6.072c-.336 0-.644-.07-.924-.21a2.098 2.098 0 0 1-.726-.606 3.033 3.033 0 0 1-.468-.99 5.072 5.072 0 0 1-.162-1.344c0-.456.062-.88.186-1.272s.302-.732.534-1.02c.232-.288.51-.512.834-.672a2.384 2.384 0 0 1 1.092-.246 2.103 2.103 0 0 1 1.536.606V5.997h1.482v8.916h-.906Zm-1.974-1.086c.308 0 .57-.064.786-.192.216-.128.42-.31.612-.546v-2.76a1.452 1.452 0 0 0-.552-.432 1.597 1.597 0 0 0-.636-.126c-.224 0-.428.042-.612.126a1.21 1.21 0 0 0-.462.384c-.124.168-.22.384-.288.648-.068.26-.102.568-.102.924 0 .36.028.666.084.918.06.248.144.452.252.612.108.156.24.27.396.342.156.068.33.102.522.102ZM16.331 20.757v6.156H14.85v-6.156h1.481Zm.223-1.794a.844.844 0 0 1-.078.36.963.963 0 0 1-.21.294.995.995 0 0 1-.3.204.963.963 0 0 1-.372.072.948.948 0 0 1-.367-.072 1.018 1.018 0 0 1-.498-.498.963.963 0 0 1 0-.732.995.995 0 0 1 .205-.3.929.929 0 0 1 .293-.198.899.899 0 0 1 .738 0 .912.912 0 0 1 .3.198.943.943 0 0 1 .288.672ZM17.771 26.913v-6.156h.906c.192 0 .318.09.378.27l.102.486a2.934 2.934 0 0 1 .828-.618c.156-.076.322-.134.498-.174.176-.04.368-.06.576-.06.336 0 .634.058.894.174.26.112.476.272.648.48.176.204.308.45.396.738.092.284.138.598.138.942v3.918h-1.482v-3.918c0-.376-.088-.666-.264-.87-.172-.208-.432-.312-.78-.312-.256 0-.496.058-.72.174a2.58 2.58 0 0 0-.636.474v4.452h-1.482ZM34.22 22.575c0 .636-.106 1.22-.318 1.752-.212.532-.51.99-.894 1.374a4 4 0 0 1-1.386.894 4.87 4.87 0 0 1-1.794.318h-3.312v-8.676h3.312a4.79 4.79 0 0 1 1.794.324 4 4 0 0 1 1.386.894c.384.38.682.836.894 1.368.212.532.318 1.116.318 1.752Zm-1.65 0c0-.476-.064-.902-.192-1.278a2.68 2.68 0 0 0-.546-.96 2.332 2.332 0 0 0-.864-.606 2.94 2.94 0 0 0-1.14-.21h-1.686v6.108h1.686c.424 0 .804-.07 1.14-.21.34-.14.628-.34.864-.6a2.75 2.75 0 0 0 .546-.96 4.01 4.01 0 0 0 .192-1.284ZM39.98 26.913h-.665c-.14 0-.25-.02-.33-.06-.08-.044-.14-.13-.18-.258l-.132-.438c-.156.14-.31.264-.462.372a2.804 2.804 0 0 1-.462.264c-.16.072-.33.126-.51.162-.18.036-.38.054-.6.054-.26 0-.5-.034-.72-.102a1.618 1.618 0 0 1-.57-.318 1.448 1.448 0 0 1-.366-.522 1.852 1.852 0 0 1-.132-.726c0-.232.06-.46.18-.684.124-.228.328-.432.612-.612.284-.184.662-.336 1.134-.456.472-.12 1.058-.188 1.758-.204v-.36c0-.412-.088-.716-.264-.912-.172-.2-.424-.3-.756-.3a1.837 1.837 0 0 0-1.02.276c-.116.068-.224.13-.324.186a.664.664 0 0 1-.33.084.429.429 0 0 1-.258-.078.614.614 0 0 1-.174-.192l-.27-.474c.708-.648 1.562-.972 2.562-.972.36 0 .68.06.96.18.284.116.524.28.72.492.196.208.344.458.444.75.104.292.156.612.156.96v3.888Zm-2.88-.924c.153 0 .293-.014.42-.042.129-.028.249-.07.36-.126.117-.056.227-.124.33-.204.109-.084.217-.182.325-.294v-1.038c-.432.02-.794.058-1.086.114-.288.052-.52.12-.696.204a.923.923 0 0 0-.378.294.664.664 0 0 0-.108.366c0 .26.076.446.228.558.156.112.358.168.606.168ZM43.22 27.01c-.532 0-.942-.15-1.23-.45-.288-.305-.432-.723-.432-1.255v-3.438h-.624a.31.31 0 0 1-.21-.078c-.056-.052-.084-.13-.084-.234v-.588l.99-.162.312-1.68a.302.302 0 0 1 .108-.186.365.365 0 0 1 .222-.066h.768v1.938h1.62v1.056h-1.62v3.336c0 .192.048.342.144.45a.488.488 0 0 0 .384.162c.092 0 .168-.01.228-.03.064-.024.118-.048.162-.072.048-.024.09-.046.126-.066a.194.194 0 0 1 .108-.036.16.16 0 0 1 .108.036c.028.02.058.052.09.096l.444.72c-.216.18-.464.316-.744.408a2.77 2.77 0 0 1-.87.138ZM50.423 26.913h-.666c-.14 0-.25-.02-.33-.06-.08-.044-.14-.13-.18-.258l-.132-.438c-.156.14-.31.264-.462.372a2.804 2.804 0 0 1-.462.264c-.16.072-.33.126-.51.162-.18.036-.38.054-.6.054-.26 0-.5-.034-.72-.102a1.618 1.618 0 0 1-.57-.318 1.448 1.448 0 0 1-.366-.522 1.852 1.852 0 0 1-.132-.726c0-.232.06-.46.18-.684.124-.228.328-.432.612-.612.284-.184.662-.336 1.134-.456.472-.12 1.058-.188 1.758-.204v-.36c0-.412-.088-.716-.264-.912-.172-.2-.424-.3-.756-.3a1.837 1.837 0 0 0-1.02.276c-.116.068-.224.13-.324.186a.664.664 0 0 1-.33.084.429.429 0 0 1-.258-.078.614.614 0 0 1-.174-.192l-.27-.474c.708-.648 1.562-.972 2.562-.972.36 0 .68.06.96.18.284.116.524.28.72.492.196.208.344.458.444.75.104.292.156.612.156.96v3.888Zm-2.88-.924c.152 0 .292-.014.42-.042.128-.028.248-.07.36-.126.116-.056.226-.124.33-.204.108-.084.216-.182.324-.294v-1.038c-.432.02-.794.058-1.086.114-.288.052-.52.12-.696.204a.923.923 0 0 0-.378.294.664.664 0 0 0-.108.366c0 .26.076.446.228.558.156.112.358.168.606.168Z"/></svg></g><a id="title" href="https://ourworldindata.org/explorers/inequality?tab=chart&amp;time=1980..latest&amp;country=USA~Latin+America+%28WID%29~Europe+%28WID%29~Africa+%28WID%29~Asia+%28WID%29~Oceania+%28WID%29&amp;Data=World+Inequality+Database+%28Incomes+before+tax%29&amp;Indicator=Share+of+the+richest+1%25" style="font-family:&#x27;Playfair Display&#x27;, Georgia, &#x27;Times New Roman&#x27;, &#x27;Liberation Serif&#x27;, serif" target="_blank" rel="noopener"><text font-size="25.00" font-weight="600" x="16.0" y="40.3" fill="#2d2e2d"><tspan x="16" y="40.25">Income share of the richest 1%, 1980 to 2022</tspan></text></a><g id="subtitle" class="markdown-text-wrap"><text x="16.0" y="66.5" style="font-size:15px;line-height:1.2" fill="#5b5b5b"><tspan x="16" y="66.5">The share of income received by the richest 1% of the population. Income here is measured before taxes and</tspan><tspan x="16" y="84.5">benefits.</tspan></text></g></g><g id="chart-area" style="pointer-events:none"><g id="horizontal-axis" class="HorizontalAxis"><g id="tick-marks"><line id="1980" x1="47.1" y1="511.79999999999995" x2="47.1" y2="517.3" stroke="#999" stroke-width="1"></line><line id="2022" x1="681.4" y1="511.79999999999995" x2="681.4" y2="517.3" stroke="#999" stroke-width="1"></line><line id="1985" x1="122.6" y1="511.79999999999995" x2="122.6" y2="517.3" stroke="#999" stroke-width="1"></line><line id="1990" x1="198.1" y1="511.79999999999995" x2="198.1" y2="517.3" stroke="#999" stroke-width="1"></line><line id="1995" x1="273.6" y1="511.79999999999995" x2="273.6" y2="517.3" stroke="#999" stroke-width="1"></line><line id="2000" x1="349.1" y1="511.79999999999995" x2="349.1" y2="517.3" stroke="#999" stroke-width="1"></line><line id="2005" x1="424.7" y1="511.79999999999995" x2="424.7" y2="517.3" stroke="#999" stroke-width="1"></line><line id="2010" x1="500.2" y1="511.79999999999995" x2="500.2" y2="517.3" stroke="#999" stroke-width="1"></line><line id="2015" x1="575.7" y1="511.79999999999995" x2="575.7" y2="517.3" stroke="#999" stroke-width="1"></line></g><g id="tick-labels"><text x="47.13" y="530.3" fill="#5b5b5b" text-anchor="start" font-size="13">1980</text><text x="681.37" y="530.3" fill="#5b5b5b" text-anchor="end" font-size="13">2022</text><text x="122.6" y="530.3" fill="#5b5b5b" text-anchor="middle" font-size="13">1985</text><text x="198.1" y="530.3" fill="#5b5b5b" text-anchor="middle" font-size="13">1990</text><text x="273.6" y="530.3" fill="#5b5b5b" text-anchor="middle" font-size="13">1995</text><text x="349.1" y="530.3" fill="#5b5b5b" text-anchor="middle" font-size="13">2000</text><text x="424.7" y="530.3" fill="#5b5b5b" text-anchor="middle" font-size="13">2005</text><text x="500.2" y="530.3" fill="#5b5b5b" text-anchor="middle" font-size="13">2010</text><text x="575.7" y="530.3" fill="#5b5b5b" text-anchor="middle" font-size="13">2015</text></g></g><g id="vertical-axis" class="VerticalAxis"><g id="tick-labels"><text x="42.13" y="512.3" dy=".32em" text-anchor="end" fill="#5b5b5b" font-size="13">0%</text><text x="42.13" y="431.8" dy=".32em" text-anchor="end" fill="#5b5b5b" font-size="13">5%</text><text x="42.13" y="351.4" dy=".32em" text-anchor="end" fill="#5b5b5b" font-size="13">10%</text><text x="42.13" y="270.9" dy=".32em" text-anchor="end" fill="#5b5b5b" font-size="13">15%</text><text x="42.13" y="190.5" dy=".32em" text-anchor="end" fill="#5b5b5b" font-size="13">20%</text><text x="42.13" y="110" dy=".32em" text-anchor="end" fill="#5b5b5b" font-size="13">25%</text></g></g><g id="horizontal-grid-lines" class="AxisGridLines horizontalLines"><line id="0%" x1="47.13" y1="512.3" x2="681.37" y2="512.3" stroke="#999"></line><line id="5%" x1="47.13" y1="431.8" x2="681.37" y2="431.8" stroke="#ddd" stroke-dasharray="4,4"></line><line id="10%" x1="47.13" y1="351.4" x2="681.37" y2="351.4" stroke="#ddd" stroke-dasharray="4,4"></line><line id="15%" x1="47.13" y1="270.9" x2="681.37" y2="270.9" stroke="#ddd" stroke-dasharray="4,4"></line><line id="20%" x1="47.13" y1="190.5" x2="681.37" y2="190.5" stroke="#ddd" stroke-dasharray="4,4"></line><line id="25%" x1="47.13" y1="110" x2="681.37" y2="110" stroke="#ddd" stroke-dasharray="4,4"></line></g><g id="line-labels" class="LineLabels"><g id="text-annotations"></g><g id="text-labels"><text id="label__Latin-America-(WID)" font-size="13.00" font-weight="400" x="685.4" y="158.9" fill="#9a5129" opacity="1" text-anchor="start"><tspan x="685.37" y="158.91">Latin America (WID)</tspan></text><text id="label__United-States" font-size="13.00" font-weight="400" x="685.4" y="181.3" fill="#b13507" opacity="1" text-anchor="start"><tspan x="685.37" y="181.31">United States</tspan></text><text id="label__Asia-(WID)" font-size="13.00" font-weight="400" x="685.4" y="205.2" fill="#970046" opacity="1" text-anchor="start"><tspan x="685.37" y="205.21">Asia (WID)</tspan></text><text id="label__Africa-(WID)" font-size="13.00" font-weight="400" x="685.4" y="227.8" fill="#008291" opacity="1" text-anchor="start"><tspan x="685.37" y="227.81">Africa (WID)</tspan></text><text id="label__Europe-(WID)" font-size="13.00" font-weight="400" x="685.4" y="323.9" fill="#a2559c" opacity="1" text-anchor="start"><tspan x="685.37" y="323.91">Europe (WID)</tspan></text><text id="label__Oceania-(WID)" font-size="13.00" font-weight="400" x="685.4" y="342.2" fill="#338711" opacity="1" text-anchor="start"><tspan x="685.37" y="342.21000000000004">Oceania (WID)</tspan></text></g></g><g id="lines"><path fill="none" stroke-linecap="butt" stroke-linejoin="round" stroke="#ffffff" id="outline__United-States" stroke-width="2.5" d="M47.1 344.6L62.2 340.6L77.3 335.4L92.4 327.2L107.5 316.8L122.6 314.9L137.7 319.5L152.8 299.2L167.9 267.5L183 275.9L198.1 275.6L213.2 292.6L228.3 276.1L243.4 284.6L258.5 286.7L273.6 278.6L288.7 266.9L303.8 254.8L318.9 249.7L334 242.6L349.1 233.3L364.3 245.3L379.4 253.2L394.5 249.7L409.6 237.8L424.7 221.7L439.8 214.3L454.9 216.5L470 223.8L485.1 243.6L500.2 224.4L515.3 221.4L530.4 198.7L545.5 215.2L560.6 207L575.7 208.3L590.8 212L605.9 205.7L621 202.7L636.1 205.9L651.2 213L666.3 187.2L681.4 176.5"></path><path fill="none" stroke-linecap="butt" stroke-linejoin="round" stroke="#b13507" id="line__United-States" stroke-width="1.5" stroke-opacity="1" d="M47.1 344.6L62.2 340.6L77.3 335.4L92.4 327.2L107.5 316.8L122.6 314.9L137.7 319.5L152.8 299.2L167.9 267.5L183 275.9L198.1 275.6L213.2 292.6L228.3 276.1L243.4 284.6L258.5 286.7L273.6 278.6L288.7 266.9L303.8 254.8L318.9 249.7L334 242.6L349.1 233.3L364.3 245.3L379.4 253.2L394.5 249.7L409.6 237.8L424.7 221.7L439.8 214.3L454.9 216.5L470 223.8L485.1 243.6L500.2 224.4L515.3 221.4L530.4 198.7L545.5 215.2L560.6 207L575.7 208.3L590.8 212L605.9 205.7L621 202.7L636.1 205.9L651.2 213L666.3 187.2L681.4 176.5"></path><g id="datapoints__United-States"><circle id="1980" cx="47.1" cy="344.6" r="1.8" fill="#b13507" opacity="1"></circle><circle id="1981" cx="62.2" cy="340.6" r="1.8" fill="#b13507" opacity="1"></circle><circle id="1982" cx="77.3" cy="335.4" r="1.8" fill="#b13507" opacity="1"></circle><circle id="1983" cx="92.4" cy="327.2" r="1.8" fill="#b13507" opacity="1"></circle><circle id="1984" cx="107.5" cy="316.8" r="1.8" fill="#b13507" opacity="1"></circle><circle id="1985" cx="122.6" cy="314.9" r="1.8" fill="#b13507" opacity="1"></circle><circle id="1986" cx="137.7" cy="319.5" r="1.8" fill="#b13507" opacity="1"></circle><circle id="1987" cx="152.8" cy="299.2" r="1.8" fill="#b13507" opacity="1"></circle><circle id="1988" cx="167.9" cy="267.5" r="1.8" fill="#b13507" opacity="1"></circle><circle id="1989" cx="183" cy="275.9" r="1.8" fill="#b13507" opacity="1"></circle><circle id="1990" cx="198.1" cy="275.6" r="1.8" fill="#b13507" opacity="1"></circle><circle id="1991" cx="213.2" cy="292.6" r="1.8" fill="#b13507" opacity="1"></circle><circle id="1992" cx="228.3" cy="276.1" r="1.8" fill="#b13507" opacity="1"></circle><circle id="1993" cx="243.4" cy="284.6" r="1.8" fill="#b13507" opacity="1"></circle><circle id="1994" cx="258.5" cy="286.7" r="1.8" fill="#b13507" opacity="1"></circle><circle id="1995" cx="273.6" cy="278.6" r="1.8" fill="#b13507" opacity="1"></circle><circle id="1996" cx="288.7" cy="266.9" r="1.8" fill="#b13507" opacity="1"></circle><circle id="1997" cx="303.8" cy="254.8" r="1.8" fill="#b13507" opacity="1"></circle><circle id="1998" cx="318.9" cy="249.7" r="1.8" fill="#b13507" opacity="1"></circle><circle id="1999" cx="334" cy="242.6" r="1.8" fill="#b13507" opacity="1"></circle><circle id="2000" cx="349.1" cy="233.3" r="1.8" fill="#b13507" opacity="1"></circle><circle id="2001" cx="364.3" cy="245.3" r="1.8" fill="#b13507" opacity="1"></circle><circle id="2002" cx="379.4" cy="253.2" r="1.8" fill="#b13507" opacity="1"></circle><circle id="2003" cx="394.5" cy="249.7" r="1.8" fill="#b13507" opacity="1"></circle><circle id="2004" cx="409.6" cy="237.8" r="1.8" fill="#b13507" opacity="1"></circle><circle id="2005" cx="424.7" cy="221.7" r="1.8" fill="#b13507" opacity="1"></circle><circle id="2006" cx="439.8" cy="214.3" r="1.8" fill="#b13507" opacity="1"></circle><circle id="2007" cx="454.9" cy="216.5" r="1.8" fill="#b13507" opacity="1"></circle><circle id="2008" cx="470" cy="223.8" r="1.8" fill="#b13507" opacity="1"></circle><circle id="2009" cx="485.1" cy="243.6" r="1.8" fill="#b13507" opacity="1"></circle><circle id="2010" cx="500.2" cy="224.4" r="1.8" fill="#b13507" opacity="1"></circle><circle id="2011" cx="515.3" cy="221.4" r="1.8" fill="#b13507" opacity="1"></circle><circle id="2012" cx="530.4" cy="198.7" r="1.8" fill="#b13507" opacity="1"></circle><circle id="2013" cx="545.5" cy="215.2" r="1.8" fill="#b13507" opacity="1"></circle><circle id="2014" cx="560.6" cy="207" r="1.8" fill="#b13507" opacity="1"></circle><circle id="2015" cx="575.7" cy="208.3" r="1.8" fill="#b13507" opacity="1"></circle><circle id="2016" cx="590.8" cy="212" r="1.8" fill="#b13507" opacity="1"></circle><circle id="2017" cx="605.9" cy="205.7" r="1.8" fill="#b13507" opacity="1"></circle><circle id="2018" cx="621" cy="202.7" r="1.8" fill="#b13507" opacity="1"></circle><circle id="2019" cx="636.1" cy="205.9" r="1.8" fill="#b13507" opacity="1"></circle><circle id="2020" cx="651.2" cy="213" r="1.8" fill="#b13507" opacity="1"></circle><circle id="2021" cx="666.3" cy="187.2" r="1.8" fill="#b13507" opacity="1"></circle><circle id="2022" cx="681.4" cy="176.5" r="1.8" fill="#b13507" opacity="1"></circle></g><path fill="none" stroke-linecap="butt" stroke-linejoin="round" stroke="#ffffff" id="outline__Oceania-(WID)" stroke-width="2.5" d="M47.1 415.9L62.2 418.5L77.3 417.8L92.4 415.7L107.5 411.2L122.6 407.1L137.7 403L152.8 385.2L167.9 356.9L183 380.8L198.1 384.4L213.2 387.6L228.3 387.4L243.4 381.3L258.5 375.8L273.6 370.5L288.7 364.6L303.8 373.3L318.9 359.6L334 355.1L349.1 352.7L364.3 351.5L379.4 343.2L394.5 340.6L409.6 334.3L424.7 332.7L439.8 333.5L454.9 322.1L470 325.6L485.1 318.7L500.2 320.8L515.3 317.9L530.4 319.7L545.5 325.5L560.6 320.2L575.7 329.2L590.8 336.6L605.9 328L621 334.5L636.1 330.6L651.2 314.2L666.3 329.2L681.4 328.9"></path><path fill="none" stroke-linecap="butt" stroke-linejoin="round" stroke="#338711" id="line__Oceania-(WID)" stroke-width="1.5" stroke-opacity="1" d="M47.1 415.9L62.2 418.5L77.3 417.8L92.4 415.7L107.5 411.2L122.6 407.1L137.7 403L152.8 385.2L167.9 356.9L183 380.8L198.1 384.4L213.2 387.6L228.3 387.4L243.4 381.3L258.5 375.8L273.6 370.5L288.7 364.6L303.8 373.3L318.9 359.6L334 355.1L349.1 352.7L364.3 351.5L379.4 343.2L394.5 340.6L409.6 334.3L424.7 332.7L439.8 333.5L454.9 322.1L470 325.6L485.1 318.7L500.2 320.8L515.3 317.9L530.4 319.7L545.5 325.5L560.6 320.2L575.7 329.2L590.8 336.6L605.9 328L621 334.5L636.1 330.6L651.2 314.2L666.3 329.2L681.4 328.9"></path><g id="datapoints__Oceania-(WID)"><circle id="1980" cx="47.1" cy="415.9" r="1.8" fill="#338711" opacity="1"></circle><circle id="1981" cx="62.2" cy="418.5" r="1.8" fill="#338711" opacity="1"></circle><circle id="1982" cx="77.3" cy="417.8" r="1.8" fill="#338711" opacity="1"></circle><circle id="1983" cx="92.4" cy="415.7" r="1.8" fill="#338711" opacity="1"></circle><circle id="1984" cx="107.5" cy="411.2" r="1.8" fill="#338711" opacity="1"></circle><circle id="1985" cx="122.6" cy="407.1" r="1.8" fill="#338711" opacity="1"></circle><circle id="1986" cx="137.7" cy="403" r="1.8" fill="#338711" opacity="1"></circle><circle id="1987" cx="152.8" cy="385.2" r="1.8" fill="#338711" opacity="1"></circle><circle id="1988" cx="167.9" cy="356.9" r="1.8" fill="#338711" opacity="1"></circle><circle id="1989" cx="183" cy="380.8" r="1.8" fill="#338711" opacity="1"></circle><circle id="1990" cx="198.1" cy="384.4" r="1.8" fill="#338711" opacity="1"></circle><circle id="1991" cx="213.2" cy="387.6" r="1.8" fill="#338711" opacity="1"></circle><circle id="1992" cx="228.3" cy="387.4" r="1.8" fill="#338711" opacity="1"></circle><circle id="1993" cx="243.4" cy="381.3" r="1.8" fill="#338711" opacity="1"></circle><circle id="1994" cx="258.5" cy="375.8" r="1.8" fill="#338711" opacity="1"></circle><circle id="1995" cx="273.6" cy="370.5" r="1.8" fill="#338711" opacity="1"></circle><circle id="1996" cx="288.7" cy="364.6" r="1.8" fill="#338711" opacity="1"></circle><circle id="1997" cx="303.8" cy="373.3" r="1.8" fill="#338711" opacity="1"></circle><circle id="1998" cx="318.9" cy="359.6" r="1.8" fill="#338711" opacity="1"></circle><circle id="1999" cx="334" cy="355.1" r="1.8" fill="#338711" opacity="1"></circle><circle id="2000" cx="349.1" cy="352.7" r="1.8" fill="#338711" opacity="1"></circle><circle id="2001" cx="364.3" cy="351.5" r="1.8" fill="#338711" opacity="1"></circle><circle id="2002" cx="379.4" cy="343.2" r="1.8" fill="#338711" opacity="1"></circle><circle id="2003" cx="394.5" cy="340.6" r="1.8" fill="#338711" opacity="1"></circle><circle id="2004" cx="409.6" cy="334.3" r="1.8" fill="#338711" opacity="1"></circle><circle id="2005" cx="424.7" cy="332.7" r="1.8" fill="#338711" opacity="1"></circle><circle id="2006" cx="439.8" cy="333.5" r="1.8" fill="#338711" opacity="1"></circle><circle id="2007" cx="454.9" cy="322.1" r="1.8" fill="#338711" opacity="1"></circle><circle id="2008" cx="470" cy="325.6" r="1.8" fill="#338711" opacity="1"></circle><circle id="2009" cx="485.1" cy="318.7" r="1.8" fill="#338711" opacity="1"></circle><circle id="2010" cx="500.2" cy="320.8" r="1.8" fill="#338711" opacity="1"></circle><circle id="2011" cx="515.3" cy="317.9" r="1.8" fill="#338711" opacity="1"></circle><circle id="2012" cx="530.4" cy="319.7" r="1.8" fill="#338711" opacity="1"></circle><circle id="2013" cx="545.5" cy="325.5" r="1.8" fill="#338711" opacity="1"></circle><circle id="2014" cx="560.6" cy="320.2" r="1.8" fill="#338711" opacity="1"></circle><circle id="2015" cx="575.7" cy="329.2" r="1.8" fill="#338711" opacity="1"></circle><circle id="2016" cx="590.8" cy="336.6" r="1.8" fill="#338711" opacity="1"></circle><circle id="2017" cx="605.9" cy="328" r="1.8" fill="#338711" opacity="1"></circle><circle id="2018" cx="621" cy="334.5" r="1.8" fill="#338711" opacity="1"></circle><circle id="2019" cx="636.1" cy="330.6" r="1.8" fill="#338711" opacity="1"></circle><circle id="2020" cx="651.2" cy="314.2" r="1.8" fill="#338711" opacity="1"></circle><circle id="2021" cx="666.3" cy="329.2" r="1.8" fill="#338711" opacity="1"></circle><circle id="2022" cx="681.4" cy="328.9" r="1.8" fill="#338711" opacity="1"></circle></g><path fill="none" stroke-linecap="butt" stroke-linejoin="round" stroke="#ffffff" id="outline__Latin-America-(WID)" stroke-width="2.5" d="M47.1 213.6L62.2 213.6L77.3 212.8L92.4 214.9L107.5 214.9L122.6 212.5L137.7 212.7L152.8 212.8L167.9 212.3L183 210.9L198.1 212.5L213.2 211.5L228.3 214.4L243.4 213.5L258.5 212.7L273.6 213L288.7 215.6L303.8 214.4L318.9 215.6L334 215.7L349.1 213.5L364.3 209.3L379.4 203.8L394.5 179L409.6 175L424.7 186.4L439.8 185.6L454.9 156L470 147.8L485.1 162L500.2 148L515.3 135.6L530.4 130.8L545.5 141.4L560.6 134.6L575.7 150.6L590.8 158.6L605.9 157.5L621 143.1L636.1 149.6L651.2 145.4L666.3 154.1L681.4 154.1"></path><path fill="none" stroke-linecap="butt" stroke-linejoin="round" stroke="#9a5129" id="line__Latin-America-(WID)" stroke-width="1.5" stroke-opacity="1" d="M47.1 213.6L62.2 213.6L77.3 212.8L92.4 214.9L107.5 214.9L122.6 212.5L137.7 212.7L152.8 212.8L167.9 212.3L183 210.9L198.1 212.5L213.2 211.5L228.3 214.4L243.4 213.5L258.5 212.7L273.6 213L288.7 215.6L303.8 214.4L318.9 215.6L334 215.7L349.1 213.5L364.3 209.3L379.4 203.8L394.5 179L409.6 175L424.7 186.4L439.8 185.6L454.9 156L470 147.8L485.1 162L500.2 148L515.3 135.6L530.4 130.8L545.5 141.4L560.6 134.6L575.7 150.6L590.8 158.6L605.9 157.5L621 143.1L636.1 149.6L651.2 145.4L666.3 154.1L681.4 154.1"></path><g id="datapoints__Latin-America-(WID)"><circle id="1980" cx="47.1" cy="213.6" r="1.8" fill="#9a5129" opacity="1"></circle><circle id="1981" cx="62.2" cy="213.6" r="1.8" fill="#9a5129" opacity="1"></circle><circle id="1982" cx="77.3" cy="212.8" r="1.8" fill="#9a5129" opacity="1"></circle><circle id="1983" cx="92.4" cy="214.9" r="1.8" fill="#9a5129" opacity="1"></circle><circle id="1984" cx="107.5" cy="214.9" r="1.8" fill="#9a5129" opacity="1"></circle><circle id="1985" cx="122.6" cy="212.5" r="1.8" fill="#9a5129" opacity="1"></circle><circle id="1986" cx="137.7" cy="212.7" r="1.8" fill="#9a5129" opacity="1"></circle><circle id="1987" cx="152.8" cy="212.8" r="1.8" fill="#9a5129" opacity="1"></circle><circle id="1988" cx="167.9" cy="212.3" r="1.8" fill="#9a5129" opacity="1"></circle><circle id="1989" cx="183" cy="210.9" r="1.8" fill="#9a5129" opacity="1"></circle><circle id="1990" cx="198.1" cy="212.5" r="1.8" fill="#9a5129" opacity="1"></circle><circle id="1991" cx="213.2" cy="211.5" r="1.8" fill="#9a5129" opacity="1"></circle><circle id="1992" cx="228.3" cy="214.4" r="1.8" fill="#9a5129" opacity="1"></circle><circle id="1993" cx="243.4" cy="213.5" r="1.8" fill="#9a5129" opacity="1"></circle><circle id="1994" cx="258.5" cy="212.7" r="1.8" fill="#9a5129" opacity="1"></circle><circle id="1995" cx="273.6" cy="213" r="1.8" fill="#9a5129" opacity="1"></circle><circle id="1996" cx="288.7" cy="215.6" r="1.8" fill="#9a5129" opacity="1"></circle><circle id="1997" cx="303.8" cy="214.4" r="1.8" fill="#9a5129" opacity="1"></circle><circle id="1998" cx="318.9" cy="215.6" r="1.8" fill="#9a5129" opacity="1"></circle><circle id="1999" cx="334" cy="215.7" r="1.8" fill="#9a5129" opacity="1"></circle><circle id="2000" cx="349.1" cy="213.5" r="1.8" fill="#9a5129" opacity="1"></circle><circle id="2001" cx="364.3" cy="209.3" r="1.8" fill="#9a5129" opacity="1"></circle><circle id="2002" cx="379.4" cy="203.8" r="1.8" fill="#9a5129" opacity="1"></circle><circle id="2003" cx="394.5" cy="179" r="1.8" fill="#9a5129" opacity="1"></circle><circle id="2004" cx="409.6" cy="175" r="1.8" fill="#9a5129" opacity="1"></circle><circle id="2005" cx="424.7" cy="186.4" r="1.8" fill="#9a5129" opacity="1"></circle><circle id="2006" cx="439.8" cy="185.6" r="1.8" fill="#9a5129" opacity="1"></circle><circle id="2007" cx="454.9" cy="156" r="1.8" fill="#9a5129" opacity="1"></circle><circle id="2008" cx="470" cy="147.8" r="1.8" fill="#9a5129" opacity="1"></circle><circle id="2009" cx="485.1" cy="162" r="1.8" fill="#9a5129" opacity="1"></circle><circle id="2010" cx="500.2" cy="148" r="1.8" fill="#9a5129" opacity="1"></circle><circle id="2011" cx="515.3" cy="135.6" r="1.8" fill="#9a5129" opacity="1"></circle><circle id="2012" cx="530.4" cy="130.8" r="1.8" fill="#9a5129" opacity="1"></circle><circle id="2013" cx="545.5" cy="141.4" r="1.8" fill="#9a5129" opacity="1"></circle><circle id="2014" cx="560.6" cy="134.6" r="1.8" fill="#9a5129" opacity="1"></circle><circle id="2015" cx="575.7" cy="150.6" r="1.8" fill="#9a5129" opacity="1"></circle><circle id="2016" cx="590.8" cy="158.6" r="1.8" fill="#9a5129" opacity="1"></circle><circle id="2017" cx="605.9" cy="157.5" r="1.8" fill="#9a5129" opacity="1"></circle><circle id="2018" cx="621" cy="143.1" r="1.8" fill="#9a5129" opacity="1"></circle><circle id="2019" cx="636.1" cy="149.6" r="1.8" fill="#9a5129" opacity="1"></circle><circle id="2020" cx="651.2" cy="145.4" r="1.8" fill="#9a5129" opacity="1"></circle><circle id="2021" cx="666.3" cy="154.1" r="1.8" fill="#9a5129" opacity="1"></circle><circle id="2022" cx="681.4" cy="154.1" r="1.8" fill="#9a5129" opacity="1"></circle></g><path fill="none" stroke-linecap="butt" stroke-linejoin="round" stroke="#ffffff" id="outline__Europe-(WID)" stroke-width="2.5" d="M47.1 379.4L62.2 382.4L77.3 383.9L92.4 383.6L107.5 381.2L122.6 377.1L137.7 372.3L152.8 366.8L167.9 360.7L183 356L198.1 354.9L213.2 352.8L228.3 348.3L243.4 349L258.5 344.6L273.6 345.6L288.7 339.3L303.8 333.8L318.9 327.2L334 330L349.1 327.1L364.3 328.2L379.4 330.8L394.5 327.6L409.6 323.5L424.7 315.8L439.8 311.3L454.9 306.5L470 315.7L485.1 321.6L500.2 321.6L515.3 317.4L530.4 319.7L545.5 316L560.6 312.9L575.7 316.1L590.8 314.7L605.9 311.8L621 312.3L636.1 311L651.2 311L666.3 327.4L681.4 327.6"></path><path fill="none" stroke-linecap="butt" stroke-linejoin="round" stroke="#a2559c" id="line__Europe-(WID)" stroke-width="1.5" stroke-opacity="1" d="M47.1 379.4L62.2 382.4L77.3 383.9L92.4 383.6L107.5 381.2L122.6 377.1L137.7 372.3L152.8 366.8L167.9 360.7L183 356L198.1 354.9L213.2 352.8L228.3 348.3L243.4 349L258.5 344.6L273.6 345.6L288.7 339.3L303.8 333.8L318.9 327.2L334 330L349.1 327.1L364.3 328.2L379.4 330.8L394.5 327.6L409.6 323.5L424.7 315.8L439.8 311.3L454.9 306.5L470 315.7L485.1 321.6L500.2 321.6L515.3 317.4L530.4 319.7L545.5 316L560.6 312.9L575.7 316.1L590.8 314.7L605.9 311.8L621 312.3L636.1 311L651.2 311L666.3 327.4L681.4 327.6"></path><g id="datapoints__Europe-(WID)"><circle id="1980" cx="47.1" cy="379.4" r="1.8" fill="#a2559c" opacity="1"></circle><circle id="1981" cx="62.2" cy="382.4" r="1.8" fill="#a2559c" opacity="1"></circle><circle id="1982" cx="77.3" cy="383.9" r="1.8" fill="#a2559c" opacity="1"></circle><circle id="1983" cx="92.4" cy="383.6" r="1.8" fill="#a2559c" opacity="1"></circle><circle id="1984" cx="107.5" cy="381.2" r="1.8" fill="#a2559c" opacity="1"></circle><circle id="1985" cx="122.6" cy="377.1" r="1.8" fill="#a2559c" opacity="1"></circle><circle id="1986" cx="137.7" cy="372.3" r="1.8" fill="#a2559c" opacity="1"></circle><circle id="1987" cx="152.8" cy="366.8" r="1.8" fill="#a2559c" opacity="1"></circle><circle id="1988" cx="167.9" cy="360.7" r="1.8" fill="#a2559c" opacity="1"></circle><circle id="1989" cx="183" cy="356" r="1.8" fill="#a2559c" opacity="1"></circle><circle id="1990" cx="198.1" cy="354.9" r="1.8" fill="#a2559c" opacity="1"></circle><circle id="1991" cx="213.2" cy="352.8" r="1.8" fill="#a2559c" opacity="1"></circle><circle id="1992" cx="228.3" cy="348.3" r="1.8" fill="#a2559c" opacity="1"></circle><circle id="1993" cx="243.4" cy="349" r="1.8" fill="#a2559c" opacity="1"></circle><circle id="1994" cx="258.5" cy="344.6" r="1.8" fill="#a2559c" opacity="1"></circle><circle id="1995" cx="273.6" cy="345.6" r="1.8" fill="#a2559c" opacity="1"></circle><circle id="1996" cx="288.7" cy="339.3" r="1.8" fill="#a2559c" opacity="1"></circle><circle id="1997" cx="303.8" cy="333.8" r="1.8" fill="#a2559c" opacity="1"></circle><circle id="1998" cx="318.9" cy="327.2" r="1.8" fill="#a2559c" opacity="1"></circle><circle id="1999" cx="334" cy="330" r="1.8" fill="#a2559c" opacity="1"></circle><circle id="2000" cx="349.1" cy="327.1" r="1.8" fill="#a2559c" opacity="1"></circle><circle id="2001" cx="364.3" cy="328.2" r="1.8" fill="#a2559c" opacity="1"></circle><circle id="2002" cx="379.4" cy="330.8" r="1.8" fill="#a2559c" opacity="1"></circle><circle id="2003" cx="394.5" cy="327.6" r="1.8" fill="#a2559c" opacity="1"></circle><circle id="2004" cx="409.6" cy="323.5" r="1.8" fill="#a2559c" opacity="1"></circle><circle id="2005" cx="424.7" cy="315.8" r="1.8" fill="#a2559c" opacity="1"></circle><circle id="2006" cx="439.8" cy="311.3" r="1.8" fill="#a2559c" opacity="1"></circle><circle id="2007" cx="454.9" cy="306.5" r="1.8" fill="#a2559c" opacity="1"></circle><circle id="2008" cx="470" cy="315.7" r="1.8" fill="#a2559c" opacity="1"></circle><circle id="2009" cx="485.1" cy="321.6" r="1.8" fill="#a2559c" opacity="1"></circle><circle id="2010" cx="500.2" cy="321.6" r="1.8" fill="#a2559c" opacity="1"></circle><circle id="2011" cx="515.3" cy="317.4" r="1.8" fill="#a2559c" opacity="1"></circle><circle id="2012" cx="530.4" cy="319.7" r="1.8" fill="#a2559c" opacity="1"></circle><circle id="2013" cx="545.5" cy="316" r="1.8" fill="#a2559c" opacity="1"></circle><circle id="2014" cx="560.6" cy="312.9" r="1.8" fill="#a2559c" opacity="1"></circle><circle id="2015" cx="575.7" cy="316.1" r="1.8" fill="#a2559c" opacity="1"></circle><circle id="2016" cx="590.8" cy="314.7" r="1.8" fill="#a2559c" opacity="1"></circle><circle id="2017" cx="605.9" cy="311.8" r="1.8" fill="#a2559c" opacity="1"></circle><circle id="2018" cx="621" cy="312.3" r="1.8" fill="#a2559c" opacity="1"></circle><circle id="2019" cx="636.1" cy="311" r="1.8" fill="#a2559c" opacity="1"></circle><circle id="2020" cx="651.2" cy="311" r="1.8" fill="#a2559c" opacity="1"></circle><circle id="2021" cx="666.3" cy="327.4" r="1.8" fill="#a2559c" opacity="1"></circle><circle id="2022" cx="681.4" cy="327.6" r="1.8" fill="#a2559c" opacity="1"></circle></g><path fill="none" stroke-linecap="butt" stroke-linejoin="round" stroke="#ffffff" id="outline__Asia-(WID)" stroke-width="2.5" d="M47.1 142.5L62.2 147.3L77.3 167.4L92.4 177.1L107.5 186.4L122.6 189.2L137.7 182.1L152.8 181.9L167.9 176.9L183 169.9L198.1 157.1L213.2 156.7L228.3 161.2L243.4 159.9L258.5 160.2L273.6 154.1L288.7 150.6L303.8 157.6L318.9 158.1L334 157.3L349.1 153L364.3 148.8L379.4 155.1L394.5 150.1L409.6 151.5L424.7 151L439.8 152.6L454.9 157L470 163.3L485.1 174.4L500.2 179.4L515.3 181.3L530.4 190.3L545.5 194.5L560.6 197.4L575.7 200.1L590.8 201.9L605.9 197.5L621 200.1L636.1 206.2L651.2 198L666.3 199L681.4 200.4"></path><path fill="none" stroke-linecap="butt" stroke-linejoin="round" stroke="#970046" id="line__Asia-(WID)" stroke-width="1.5" stroke-opacity="1" d="M47.1 142.5L62.2 147.3L77.3 167.4L92.4 177.1L107.5 186.4L122.6 189.2L137.7 182.1L152.8 181.9L167.9 176.9L183 169.9L198.1 157.1L213.2 156.7L228.3 161.2L243.4 159.9L258.5 160.2L273.6 154.1L288.7 150.6L303.8 157.6L318.9 158.1L334 157.3L349.1 153L364.3 148.8L379.4 155.1L394.5 150.1L409.6 151.5L424.7 151L439.8 152.6L454.9 157L470 163.3L485.1 174.4L500.2 179.4L515.3 181.3L530.4 190.3L545.5 194.5L560.6 197.4L575.7 200.1L590.8 201.9L605.9 197.5L621 200.1L636.1 206.2L651.2 198L666.3 199L681.4 200.4"></path><g id="datapoints__Asia-(WID)"><circle id="1980" cx="47.1" cy="142.5" r="1.8" fill="#970046" opacity="1"></circle><circle id="1981" cx="62.2" cy="147.3" r="1.8" fill="#970046" opacity="1"></circle><circle id="1982" cx="77.3" cy="167.4" r="1.8" fill="#970046" opacity="1"></circle><circle id="1983" cx="92.4" cy="177.1" r="1.8" fill="#970046" opacity="1"></circle><circle id="1984" cx="107.5" cy="186.4" r="1.8" fill="#970046" opacity="1"></circle><circle id="1985" cx="122.6" cy="189.2" r="1.8" fill="#970046" opacity="1"></circle><circle id="1986" cx="137.7" cy="182.1" r="1.8" fill="#970046" opacity="1"></circle><circle id="1987" cx="152.8" cy="181.9" r="1.8" fill="#970046" opacity="1"></circle><circle id="1988" cx="167.9" cy="176.9" r="1.8" fill="#970046" opacity="1"></circle><circle id="1989" cx="183" cy="169.9" r="1.8" fill="#970046" opacity="1"></circle><circle id="1990" cx="198.1" cy="157.1" r="1.8" fill="#970046" opacity="1"></circle><circle id="1991" cx="213.2" cy="156.7" r="1.8" fill="#970046" opacity="1"></circle><circle id="1992" cx="228.3" cy="161.2" r="1.8" fill="#970046" opacity="1"></circle><circle id="1993" cx="243.4" cy="159.9" r="1.8" fill="#970046" opacity="1"></circle><circle id="1994" cx="258.5" cy="160.2" r="1.8" fill="#970046" opacity="1"></circle><circle id="1995" cx="273.6" cy="154.1" r="1.8" fill="#970046" opacity="1"></circle><circle id="1996" cx="288.7" cy="150.6" r="1.8" fill="#970046" opacity="1"></circle><circle id="1997" cx="303.8" cy="157.6" r="1.8" fill="#970046" opacity="1"></circle><circle id="1998" cx="318.9" cy="158.1" r="1.8" fill="#970046" opacity="1"></circle><circle id="1999" cx="334" cy="157.3" r="1.8" fill="#970046" opacity="1"></circle><circle id="2000" cx="349.1" cy="153" r="1.8" fill="#970046" opacity="1"></circle><circle id="2001" cx="364.3" cy="148.8" r="1.8" fill="#970046" opacity="1"></circle><circle id="2002" cx="379.4" cy="155.1" r="1.8" fill="#970046" opacity="1"></circle><circle id="2003" cx="394.5" cy="150.1" r="1.8" fill="#970046" opacity="1"></circle><circle id="2004" cx="409.6" cy="151.5" r="1.8" fill="#970046" opacity="1"></circle><circle id="2005" cx="424.7" cy="151" r="1.8" fill="#970046" opacity="1"></circle><circle id="2006" cx="439.8" cy="152.6" r="1.8" fill="#970046" opacity="1"></circle><circle id="2007" cx="454.9" cy="157" r="1.8" fill="#970046" opacity="1"></circle><circle id="2008" cx="470" cy="163.3" r="1.8" fill="#970046" opacity="1"></circle><circle id="2009" cx="485.1" cy="174.4" r="1.8" fill="#970046" opacity="1"></circle><circle id="2010" cx="500.2" cy="179.4" r="1.8" fill="#970046" opacity="1"></circle><circle id="2011" cx="515.3" cy="181.3" r="1.8" fill="#970046" opacity="1"></circle><circle id="2012" cx="530.4" cy="190.3" r="1.8" fill="#970046" opacity="1"></circle><circle id="2013" cx="545.5" cy="194.5" r="1.8" fill="#970046" opacity="1"></circle><circle id="2014" cx="560.6" cy="197.4" r="1.8" fill="#970046" opacity="1"></circle><circle id="2015" cx="575.7" cy="200.1" r="1.8" fill="#970046" opacity="1"></circle><circle id="2016" cx="590.8" cy="201.9" r="1.8" fill="#970046" opacity="1"></circle><circle id="2017" cx="605.9" cy="197.5" r="1.8" fill="#970046" opacity="1"></circle><circle id="2018" cx="621" cy="200.1" r="1.8" fill="#970046" opacity="1"></circle><circle id="2019" cx="636.1" cy="206.2" r="1.8" fill="#970046" opacity="1"></circle><circle id="2020" cx="651.2" cy="198" r="1.8" fill="#970046" opacity="1"></circle><circle id="2021" cx="666.3" cy="199" r="1.8" fill="#970046" opacity="1"></circle><circle id="2022" cx="681.4" cy="200.4" r="1.8" fill="#970046" opacity="1"></circle></g><path fill="none" stroke-linecap="butt" stroke-linejoin="round" stroke="#ffffff" id="outline__Africa-(WID)" stroke-width="2.5" d="M47.1 160.2L62.2 164.4L77.3 165.7L92.4 165L107.5 164.2L122.6 164.6L137.7 173.9L152.8 177.7L167.9 179.8L183 181.6L198.1 186.1L213.2 181.6L228.3 187.1L243.4 197.9L258.5 200.9L273.6 203.7L288.7 199.5L303.8 192.4L318.9 189.8L334 179.7L349.1 177.6L364.3 176L379.4 175.8L394.5 175.7L409.6 180.8L424.7 176.9L439.8 174.7L454.9 170.8L470 175L485.1 186.1L500.2 191.3L515.3 194.6L530.4 185.1L545.5 189L560.6 190.6L575.7 189.3L590.8 192.2L605.9 191.7L621 190.9L636.1 195L651.2 198.5L666.3 194L681.4 223"></path><path fill="none" stroke-linecap="butt" stroke-linejoin="round" stroke="#008291" id="line__Africa-(WID)" stroke-width="1.5" stroke-opacity="1" d="M47.1 160.2L62.2 164.4L77.3 165.7L92.4 165L107.5 164.2L122.6 164.6L137.7 173.9L152.8 177.7L167.9 179.8L183 181.6L198.1 186.1L213.2 181.6L228.3 187.1L243.4 197.9L258.5 200.9L273.6 203.7L288.7 199.5L303.8 192.4L318.9 189.8L334 179.7L349.1 177.6L364.3 176L379.4 175.8L394.5 175.7L409.6 180.8L424.7 176.9L439.8 174.7L454.9 170.8L470 175L485.1 186.1L500.2 191.3L515.3 194.6L530.4 185.1L545.5 189L560.6 190.6L575.7 189.3L590.8 192.2L605.9 191.7L621 190.9L636.1 195L651.2 198.5L666.3 194L681.4 223"></path><g id="datapoints__Africa-(WID)"><circle id="1980" cx="47.1" cy="160.2" r="1.8" fill="#008291" opacity="1"></circle><circle id="1981" cx="62.2" cy="164.4" r="1.8" fill="#008291" opacity="1"></circle><circle id="1982" cx="77.3" cy="165.7" r="1.8" fill="#008291" opacity="1"></circle><circle id="1983" cx="92.4" cy="165" r="1.8" fill="#008291" opacity="1"></circle><circle id="1984" cx="107.5" cy="164.2" r="1.8" fill="#008291" opacity="1"></circle><circle id="1985" cx="122.6" cy="164.6" r="1.8" fill="#008291" opacity="1"></circle><circle id="1986" cx="137.7" cy="173.9" r="1.8" fill="#008291" opacity="1"></circle><circle id="1987" cx="152.8" cy="177.7" r="1.8" fill="#008291" opacity="1"></circle><circle id="1988" cx="167.9" cy="179.8" r="1.8" fill="#008291" opacity="1"></circle><circle id="1989" cx="183" cy="181.6" r="1.8" fill="#008291" opacity="1"></circle><circle id="1990" cx="198.1" cy="186.1" r="1.8" fill="#008291" opacity="1"></circle><circle id="1991" cx="213.2" cy="181.6" r="1.8" fill="#008291" opacity="1"></circle><circle id="1992" cx="228.3" cy="187.1" r="1.8" fill="#008291" opacity="1"></circle><circle id="1993" cx="243.4" cy="197.9" r="1.8" fill="#008291" opacity="1"></circle><circle id="1994" cx="258.5" cy="200.9" r="1.8" fill="#008291" opacity="1"></circle><circle id="1995" cx="273.6" cy="203.7" r="1.8" fill="#008291" opacity="1"></circle><circle id="1996" cx="288.7" cy="199.5" r="1.8" fill="#008291" opacity="1"></circle><circle id="1997" cx="303.8" cy="192.4" r="1.8" fill="#008291" opacity="1"></circle><circle id="1998" cx="318.9" cy="189.8" r="1.8" fill="#008291" opacity="1"></circle><circle id="1999" cx="334" cy="179.7" r="1.8" fill="#008291" opacity="1"></circle><circle id="2000" cx="349.1" cy="177.6" r="1.8" fill="#008291" opacity="1"></circle><circle id="2001" cx="364.3" cy="176" r="1.8" fill="#008291" opacity="1"></circle><circle id="2002" cx="379.4" cy="175.8" r="1.8" fill="#008291" opacity="1"></circle><circle id="2003" cx="394.5" cy="175.7" r="1.8" fill="#008291" opacity="1"></circle><circle id="2004" cx="409.6" cy="180.8" r="1.8" fill="#008291" opacity="1"></circle><circle id="2005" cx="424.7" cy="176.9" r="1.8" fill="#008291" opacity="1"></circle><circle id="2006" cx="439.8" cy="174.7" r="1.8" fill="#008291" opacity="1"></circle><circle id="2007" cx="454.9" cy="170.8" r="1.8" fill="#008291" opacity="1"></circle><circle id="2008" cx="470" cy="175" r="1.8" fill="#008291" opacity="1"></circle><circle id="2009" cx="485.1" cy="186.1" r="1.8" fill="#008291" opacity="1"></circle><circle id="2010" cx="500.2" cy="191.3" r="1.8" fill="#008291" opacity="1"></circle><circle id="2011" cx="515.3" cy="194.6" r="1.8" fill="#008291" opacity="1"></circle><circle id="2012" cx="530.4" cy="185.1" r="1.8" fill="#008291" opacity="1"></circle><circle id="2013" cx="545.5" cy="189" r="1.8" fill="#008291" opacity="1"></circle><circle id="2014" cx="560.6" cy="190.6" r="1.8" fill="#008291" opacity="1"></circle><circle id="2015" cx="575.7" cy="189.3" r="1.8" fill="#008291" opacity="1"></circle><circle id="2016" cx="590.8" cy="192.2" r="1.8" fill="#008291" opacity="1"></circle><circle id="2017" cx="605.9" cy="191.7" r="1.8" fill="#008291" opacity="1"></circle><circle id="2018" cx="621" cy="190.9" r="1.8" fill="#008291" opacity="1"></circle><circle id="2019" cx="636.1" cy="195" r="1.8" fill="#008291" opacity="1"></circle><circle id="2020" cx="651.2" cy="198.5" r="1.8" fill="#008291" opacity="1"></circle><circle id="2021" cx="666.3" cy="194" r="1.8" fill="#008291" opacity="1"></circle><circle id="2022" cx="681.4" cy="223" r="1.8" fill="#008291" opacity="1"></circle></g></g></g><g id="footer" class="SourcesFooter" style="fill:#858585"><g id="sources" class="markdown-text-wrap"><text x="16.0" y="560.9" style="font-size:13px;line-height:1.2"><tspan x="16" y="560.9"><tspan style="font-weight:700">Data source:</tspan> World Inequality Database (WID.world) (2024)</tspan></text></g><g id="note" class="markdown-text-wrap"><text x="16.0" y="581.0" style="font-size:13px;line-height:1.2"><tspan x="16" y="581.0"><tspan style="font-weight:700">Note:</tspan> Income is measured before payment of taxes and non-pension benefits, but after the payment of public and private pensions.</tspan></text></g><text id="origin-url" font-size="13.00" x="794.2" y="560.9"><tspan x="794.22" y="560.91"><a target="_blank" style="fill: #858585;" href="https://creativecommons.org/licenses/by/4.0/">CC BY</a></tspan></text></g></svg>